<mxfile host="drawio-plugin" modified="2022-07-06T22:40:41.169Z" agent="5.0 (Macintosh; Intel Mac OS X 10_15_7) AppleWebKit/537.36 (KHTML, like Gecko) Chrome/97.0.4692.45 Safari/537.36" etag="xX5lOYa90K6j7E54Pe7v" version="15.5.4" type="embed"><diagram id="fHRIVjpjciXX22CaL3zA" name="Page-1"><mxGraphModel dx="904" dy="615" grid="1" gridSize="10" guides="1" tooltips="1" connect="1" arrows="1" fold="1" page="1" pageScale="1" pageWidth="850" pageHeight="1100" math="0" shadow="0"><root><mxCell id="0"/><mxCell id="1" parent="0"/><mxCell id="2" value="namespace: argocd&lt;br&gt;&lt;br&gt;&lt;br&gt;&lt;br&gt;&lt;br&gt;&lt;br&gt;&lt;br&gt;&lt;br&gt;&lt;br&gt;&lt;br&gt;&lt;br&gt;&lt;br&gt;&lt;br&gt;&lt;br&gt;&lt;br&gt;&lt;br&gt;&lt;br&gt;&lt;br&gt;" style="rounded=0;whiteSpace=wrap;html=1;" vertex="1" parent="1"><mxGeometry x="60" y="164.5" width="180" height="315.5" as="geometry"/></mxCell><mxCell id="8Fxe8tPkUlVjY57YBqE0-7" value="&lt;div&gt;user git repo&lt;/div&gt;&lt;div&gt;&lt;br&gt;&lt;/div&gt;&lt;div&gt;&lt;br&gt;&lt;/div&gt;&lt;div&gt;&lt;br&gt;&lt;/div&gt;&lt;div&gt;&lt;br&gt;&lt;/div&gt;&lt;div&gt;&lt;br&gt;&lt;/div&gt;&lt;div&gt;&lt;br&gt;&lt;/div&gt;&lt;div&gt;&lt;br&gt;&lt;/div&gt;&lt;br&gt;&lt;br&gt;&lt;br&gt;&lt;br&gt;" style="whiteSpace=wrap;html=1;aspect=fixed;" parent="1" vertex="1"><mxGeometry x="620" y="180" width="220" height="220" as="geometry"/></mxCell><mxCell id="8Fxe8tPkUlVjY57YBqE0-2" value="git dir: capi-quickstart&lt;br&gt;&lt;br&gt;&lt;br&gt;&lt;br&gt;&lt;br&gt;&lt;br&gt;&lt;br&gt;" style="whiteSpace=wrap;html=1;aspect=fixed;" parent="1" vertex="1"><mxGeometry x="640" y="230" width="160" height="160" as="geometry"/></mxCell><mxCell id="8Fxe8tPkUlVjY57YBqE0-1" value="base cluster manifest(s)" style="whiteSpace=wrap;html=1;aspect=fixed;" parent="1" vertex="1"><mxGeometry x="680" y="299" width="80" height="80" as="geometry"/></mxCell><mxCell id="8Fxe8tPkUlVjY57YBqE0-3" value="&lt;div&gt;namespace: cluster-a&lt;/div&gt;&lt;div&gt;&lt;br&gt;&lt;/div&gt;&lt;div&gt;&lt;br&gt;&lt;/div&gt;&lt;div&gt;&lt;br&gt;&lt;/div&gt;&lt;div&gt;&lt;br&gt;&lt;/div&gt;&lt;div&gt;&lt;br&gt;&lt;/div&gt;&lt;div&gt;&lt;br&gt;&lt;/div&gt;&lt;br&gt;&lt;br&gt;&lt;br&gt;&lt;br&gt;&lt;br&gt;" style="whiteSpace=wrap;html=1;aspect=fixed;" parent="1" vertex="1"><mxGeometry x="301" y="55.5" width="249" height="249" as="geometry"/></mxCell><mxCell id="8Fxe8tPkUlVjY57YBqE0-4" value="arlon manifests" style="whiteSpace=wrap;html=1;aspect=fixed;" parent="1" vertex="1"><mxGeometry x="385.5" y="120" width="80" height="80" as="geometry"/></mxCell><mxCell id="8Fxe8tPkUlVjY57YBqE0-6" value="base cluster manifest(s)" style="whiteSpace=wrap;html=1;aspect=fixed;" parent="1" vertex="1"><mxGeometry x="385.5" y="210" width="80" height="80" as="geometry"/></mxCell><mxCell id="8Fxe8tPkUlVjY57YBqE0-9" value="&lt;div&gt;namespace: cluster-b&lt;/div&gt;&lt;div&gt;&lt;br&gt;&lt;/div&gt;&lt;div&gt;&lt;br&gt;&lt;/div&gt;&lt;div&gt;&lt;br&gt;&lt;/div&gt;&lt;div&gt;&lt;br&gt;&lt;/div&gt;&lt;div&gt;&lt;br&gt;&lt;/div&gt;&lt;div&gt;&lt;br&gt;&lt;/div&gt;&lt;div&gt;&lt;br&gt;&lt;/div&gt;&lt;br&gt;&lt;br&gt;&lt;br&gt;&lt;br&gt;" style="whiteSpace=wrap;html=1;aspect=fixed;fillColor=#E6E6E6;" parent="1" vertex="1"><mxGeometry x="301" y="315.5" width="244.5" height="244.5" as="geometry"/></mxCell><mxCell id="8Fxe8tPkUlVjY57YBqE0-10" value="arlon manifests" style="whiteSpace=wrap;html=1;aspect=fixed;" parent="1" vertex="1"><mxGeometry x="385.5" y="380" width="80" height="80" as="geometry"/></mxCell><mxCell id="8Fxe8tPkUlVjY57YBqE0-11" value="base cluster manifest(s)" style="whiteSpace=wrap;html=1;aspect=fixed;" parent="1" vertex="1"><mxGeometry x="385.5" y="470" width="80" height="80" as="geometry"/></mxCell><mxCell id="8Fxe8tPkUlVjY57YBqE0-12" value="" style="endArrow=classic;html=1;rounded=0;exitX=0;exitY=0.5;exitDx=0;exitDy=0;entryX=1;entryY=0.5;entryDx=0;entryDy=0;" parent="1" source="8Fxe8tPkUlVjY57YBqE0-1" target="8Fxe8tPkUlVjY57YBqE0-6" edge="1"><mxGeometry width="50" height="50" relative="1" as="geometry"><mxPoint x="430" y="360" as="sourcePoint"/><mxPoint x="590" y="260" as="targetPoint"/></mxGeometry></mxCell><mxCell id="8Fxe8tPkUlVjY57YBqE0-13" value="" style="endArrow=classic;html=1;rounded=0;exitX=0;exitY=0.5;exitDx=0;exitDy=0;entryX=1;entryY=0.5;entryDx=0;entryDy=0;" parent="1" source="8Fxe8tPkUlVjY57YBqE0-1" target="8Fxe8tPkUlVjY57YBqE0-11" edge="1"><mxGeometry width="50" height="50" relative="1" as="geometry"><mxPoint x="690" y="349" as="sourcePoint"/><mxPoint x="450" y="265.5" as="targetPoint"/></mxGeometry></mxCell><mxCell id="8Fxe8tPkUlVjY57YBqE0-17" value="app: cluster-a" style="rounded=0;whiteSpace=wrap;html=1;" parent="1" vertex="1"><mxGeometry x="90" y="254.5" width="120" height="30" as="geometry"/></mxCell><mxCell id="8Fxe8tPkUlVjY57YBqE0-18" value="app: cluster-a-arlon" style="rounded=0;whiteSpace=wrap;html=1;" parent="1" vertex="1"><mxGeometry x="90" y="210" width="120" height="30" as="geometry"/></mxCell><mxCell id="8Fxe8tPkUlVjY57YBqE0-19" value="app: cluster-b" style="rounded=0;whiteSpace=wrap;html=1;fillColor=#E6E6E6;" parent="1" vertex="1"><mxGeometry x="90" y="384.5" width="120" height="30" as="geometry"/></mxCell><mxCell id="8Fxe8tPkUlVjY57YBqE0-20" value="app: cluster-b-arlon" style="rounded=0;whiteSpace=wrap;html=1;fillColor=#E6E6E6;" parent="1" vertex="1"><mxGeometry x="90" y="340" width="120" height="30" as="geometry"/></mxCell><mxCell id="8Fxe8tPkUlVjY57YBqE0-26" value="&lt;div&gt;arlon OSS git repo&lt;/div&gt;&lt;div&gt;&lt;br&gt;&lt;/div&gt;&lt;div&gt;&lt;br&gt;&lt;/div&gt;" style="rounded=0;whiteSpace=wrap;html=1;" parent="1" vertex="1"><mxGeometry x="620" y="40" width="220" height="94.5" as="geometry"/></mxCell><mxCell id="8Fxe8tPkUlVjY57YBqE0-27" value="arlon manifests (Helm)" style="rounded=0;whiteSpace=wrap;html=1;" parent="1" vertex="1"><mxGeometry x="660" y="94.5" width="150" height="30" as="geometry"/></mxCell><mxCell id="8Fxe8tPkUlVjY57YBqE0-28" value="" style="endArrow=none;dashed=1;html=1;dashPattern=1 3;strokeWidth=2;rounded=0;exitX=1;exitY=0.5;exitDx=0;exitDy=0;entryX=0;entryY=0.5;entryDx=0;entryDy=0;" parent="1" source="8Fxe8tPkUlVjY57YBqE0-18" target="8Fxe8tPkUlVjY57YBqE0-4" edge="1"><mxGeometry width="50" height="50" relative="1" as="geometry"><mxPoint x="430" y="330" as="sourcePoint"/><mxPoint x="480" y="280" as="targetPoint"/></mxGeometry></mxCell><mxCell id="8Fxe8tPkUlVjY57YBqE0-29" value="" style="endArrow=none;dashed=1;html=1;dashPattern=1 3;strokeWidth=2;rounded=0;entryX=0;entryY=0.5;entryDx=0;entryDy=0;exitX=1;exitY=0.5;exitDx=0;exitDy=0;" parent="1" source="8Fxe8tPkUlVjY57YBqE0-17" target="8Fxe8tPkUlVjY57YBqE0-6" edge="1"><mxGeometry width="50" height="50" relative="1" as="geometry"><mxPoint x="220" y="250.5" as="sourcePoint"/><mxPoint x="370" y="175.5" as="targetPoint"/></mxGeometry></mxCell><mxCell id="8Fxe8tPkUlVjY57YBqE0-30" value="" style="endArrow=none;dashed=1;html=1;dashPattern=1 3;strokeWidth=2;rounded=0;entryX=0;entryY=0.5;entryDx=0;entryDy=0;exitX=1;exitY=0.5;exitDx=0;exitDy=0;" parent="1" source="8Fxe8tPkUlVjY57YBqE0-20" target="8Fxe8tPkUlVjY57YBqE0-10" edge="1"><mxGeometry width="50" height="50" relative="1" as="geometry"><mxPoint x="230" y="260.5" as="sourcePoint"/><mxPoint x="380" y="185.5" as="targetPoint"/></mxGeometry></mxCell><mxCell id="8Fxe8tPkUlVjY57YBqE0-31" value="" style="endArrow=none;dashed=1;html=1;dashPattern=1 3;strokeWidth=2;rounded=0;exitX=1;exitY=0.5;exitDx=0;exitDy=0;entryX=0;entryY=0.5;entryDx=0;entryDy=0;" parent="1" source="8Fxe8tPkUlVjY57YBqE0-19" target="8Fxe8tPkUlVjY57YBqE0-11" edge="1"><mxGeometry width="50" height="50" relative="1" as="geometry"><mxPoint x="240" y="270.5" as="sourcePoint"/><mxPoint x="390" y="195.5" as="targetPoint"/></mxGeometry></mxCell><mxCell id="8Fxe8tPkUlVjY57YBqE0-32" value="" style="endArrow=classic;html=1;rounded=0;entryX=1;entryY=0.5;entryDx=0;entryDy=0;exitX=0;exitY=0.5;exitDx=0;exitDy=0;" parent="1" source="8Fxe8tPkUlVjY57YBqE0-27" target="8Fxe8tPkUlVjY57YBqE0-4" edge="1"><mxGeometry width="50" height="50" relative="1" as="geometry"><mxPoint x="690" y="349" as="sourcePoint"/><mxPoint x="450" y="265.5" as="targetPoint"/></mxGeometry></mxCell><mxCell id="8Fxe8tPkUlVjY57YBqE0-33" value="" style="endArrow=classic;html=1;rounded=0;entryX=1;entryY=0.5;entryDx=0;entryDy=0;exitX=0;exitY=0.5;exitDx=0;exitDy=0;" parent="1" source="8Fxe8tPkUlVjY57YBqE0-27" target="8Fxe8tPkUlVjY57YBqE0-10" edge="1"><mxGeometry width="50" height="50" relative="1" as="geometry"><mxPoint x="660" y="130" as="sourcePoint"/><mxPoint x="460" y="275.5" as="targetPoint"/></mxGeometry></mxCell><mxCell id="3" value="app: cluster-a-profile-xxx" style="rounded=0;whiteSpace=wrap;html=1;" vertex="1" parent="1"><mxGeometry x="80" y="295" width="140" height="30" as="geometry"/></mxCell><mxCell id="5" value="app: cluster-b-profile-yyy" style="rounded=0;whiteSpace=wrap;html=1;fillColor=#E6E6E6;" vertex="1" parent="1"><mxGeometry x="70" y="430" width="160" height="30" as="geometry"/></mxCell></root></mxGraphModel></diagram></mxfile>